<svg xmlns="http://www.w3.org/2000/svg" width="1050" height="495" viewBox="0 0 1050 495">
<rect width="100%" height="100%" fill="white"/>
<style>text{font-family:Arial,sans-serif;fill:#17212b;font-size:12px}</style>
<text x="22" y="28" style="font-size:19px">Probe-decoded physical effect over imagined time</text>
<text x="22" y="49">Same 300 initial candidates; one development start, not 300 independent episodes; no confidence interval.</text>
<path d="M90 85 V410 H785" fill="none" stroke="#777"/>
<text x="365" y="470">Imagined model step (five raw actions each)</text>
<text x="20" y="75">Mean decoded displacement change (m)</text>
<text x="82.0" y="433">1</text>
<text x="25" y="414.0">0</text>
<text x="218.0" y="433">2</text>
<text x="25" y="350.0">0.000889</text>
<text x="354.0" y="433">3</text>
<text x="25" y="286.0">0.00178</text>
<text x="490.0" y="433">4</text>
<text x="25" y="222.0">0.00267</text>
<text x="626.0" y="433">5</text>
<text x="25" y="158.0">0.00356</text>
<text x="762.0" y="433">6</text>
<text x="25" y="94.0">0.00445</text>
<polyline points="90.00,410.00 226.00,410.00 362.00,410.00 498.00,410.00 634.00,410.00 770.00,410.00" fill="none" stroke="#286aa6" stroke-width="2"/>
<text x="800" y="90" style="fill:#286aa6">unsteered</text>
<polyline points="90.00,410.00 226.00,410.00 362.00,410.00 498.00,410.00 634.00,410.00 770.00,410.00" fill="none" stroke="#c8543b" stroke-width="2"/>
<text x="800" y="110" style="fill:#c8543b">identity</text>
<polyline points="90.00,374.59 226.00,384.69 362.00,373.53 498.00,371.21 634.00,367.53 770.00,363.24" fill="none" stroke="#478750" stroke-width="2"/>
<text x="800" y="130" style="fill:#478750">subspace_up</text>
<polyline points="90.00,319.30 226.00,310.48 362.00,210.48 498.00,184.55 634.00,146.67 770.00,123.82" fill="none" stroke="#8a5eab" stroke-width="2"/>
<text x="800" y="150" style="fill:#8a5eab">sham_up</text>
<polyline points="90.00,370.57 226.00,376.07 362.00,370.40 498.00,370.65 634.00,367.58 770.00,365.43" fill="none" stroke="#ba8c27" stroke-width="2"/>
<text x="800" y="170" style="fill:#ba8c27">subspace_down</text>
<polyline points="90.00,321.67 226.00,310.41 362.00,203.29 498.00,164.33 634.00,124.96 770.00,90.00" fill="none" stroke="#3d9198" stroke-width="2"/>
<text x="800" y="190" style="fill:#3d9198">sham_down</text>
</svg>