<?xml version="1.0" encoding="utf-8" standalone="no"?>
<!DOCTYPE svg PUBLIC "-//W3C//DTD SVG 1.1//EN"
  "http://www.w3.org/Graphics/SVG/1.1/DTD/svg11.dtd">
<svg xmlns:xlink="http://www.w3.org/1999/xlink" width="561.6pt" height="345.6pt" viewBox="0 0 561.6 345.6" xmlns="http://www.w3.org/2000/svg" version="1.1">
 <metadata>
  <rdf:RDF xmlns:dc="http://purl.org/dc/elements/1.1/" xmlns:cc="http://creativecommons.org/ns#" xmlns:rdf="http://www.w3.org/1999/02/22-rdf-syntax-ns#">
   <cc:Work>
    <dc:type rdf:resource="http://purl.org/dc/dcmitype/StillImage"/>
    <dc:description>{"cem_plot_source_sha256": "ae38902e7de4a64a15f95e8f04a82ae562acf5baefec87d32e64e2c8836fd001", "generator_sha256": "21cc325b572a12026ebb37908329ecf4c9ef3c35004afa27d89f74460ad8d726", "metric": "proposal_entropy_delta_nats", "n_per_task": 28, "plotted_cohort": "extension56", "receipt_sha256": "2952a0c0a96591834fcdeb7daa7fb01b641c8fa50758c9a55d55eadc91c263d7", "scope": "Same-device native comparator; all cases and both fixed edit arms; not physical efficacy", "source_tables": {"paper/data/cem_expansion_iteration_cases.csv": {"rows": 1920, "sha256": "42f780906207318ed5e9f1bfb47897a1e378ccc9c75f1376c5ae82a9e3912ea8"}, "paper/data/cem_expansion_iteration_summary.csv": {"rows": 2340, "sha256": "b3f8440d286bba4eeed395d3026f5b716ecd1cea86028cfa1de1cd468152cf00"}, "paper/data/cem_expansion_primary_cases.csv": {"rows": 192, "sha256": "f15bc02c50e4f29e15ff12a027e913595a89ad260b1e1d1263091555c13857fc"}, "paper/data/cem_expansion_primary_summary.csv": {"rows": 18, "sha256": "3b901f5f3d2998fab358017a95c71fecd4b71fb30afb266f0184590c6fe34619"}, "paper/data/cem_expansion_selected_prefix_cases.csv": {"rows": 128, "sha256": "d0219651fd5e55875539625a40d61070c9c87392fa19286b78c586c3bd3495f7"}, "paper/data/cem_expansion_selected_prefix_summary.csv": {"rows": 48, "sha256": "adc245fb2a3243a5b16ba055812ccb9462f50b97b6dbbe8e32e0ccc308cf4ee0"}, "paper/data/cem_expansion_shared_iteration0_summary.csv": {"rows": 36, "sha256": "5df31a703e99a3791a100c29df5afcaaf6b2f64bc064d4ac5451b1a314e0e4e9"}}, "uncertainty": "one scenario SE; not a confidence interval or training-seed variation"}</dc:description>
    <dc:format>image/svg+xml</dc:format>
    <dc:creator>
     <cc:Agent>
      <dc:title>Matplotlib v3.10.9, https://matplotlib.org/</dc:title>
     </cc:Agent>
    </dc:creator>
   </cc:Work>
  </rdf:RDF>
 </metadata>
 <defs>
  <style type="text/css">*{stroke-linejoin: round; stroke-linecap: butt}</style>
 </defs>
 <g id="figure_1">
  <g id="patch_1">
   <path d="M 0 345.6 
L 561.6 345.6 
L 561.6 0 
L 0 0 
z
" style="fill: #ffffff"/>
  </g>
  <g id="axes_1">
   <g id="patch_2">
    <path d="M 64.584 266.112 
L 282.556603 266.112 
L 282.556603 107.136 
L 64.584 107.136 
z
" style="fill: #ffffff"/>
   </g>
   <g id="matplotlib.axis_1">
    <g id="xtick_1">
     <g id="line2d_1"/>
     <g id="text_1">
      <text style="font-size: 10px; font-family: 'DejaVu Sans'; text-anchor: middle; fill: #63737c" x="64.584" y="279.710438" transform="rotate(-0 64.584 279.710438)">1</text>
     </g>
    </g>
    <g id="xtick_2">
     <g id="line2d_2"/>
     <g id="text_2">
      <text style="font-size: 10px; font-family: 'DejaVu Sans'; text-anchor: middle; fill: #63737c" x="126.861886" y="279.710438" transform="rotate(-0 126.861886 279.710438)">5</text>
     </g>
    </g>
    <g id="xtick_3">
     <g id="line2d_3"/>
     <g id="text_3">
      <text style="font-size: 10px; font-family: 'DejaVu Sans'; text-anchor: middle; fill: #63737c" x="204.709245" y="279.710438" transform="rotate(-0 204.709245 279.710438)">10</text>
     </g>
    </g>
    <g id="xtick_4">
     <g id="line2d_4"/>
     <g id="text_4">
      <text style="font-size: 10px; font-family: 'DejaVu Sans'; text-anchor: middle; fill: #63737c" x="282.556603" y="279.710438" transform="rotate(-0 282.556603 279.710438)">15</text>
     </g>
    </g>
    <g id="text_5">
     <text style="font-size: 11px; font-family: 'DejaVu Sans'; text-anchor: middle" x="173.570301" y="294.148406" transform="rotate(-0 173.570301 294.148406)">CEM iteration</text>
    </g>
   </g>
   <g id="matplotlib.axis_2">
    <g id="ytick_1">
     <g id="line2d_5">
      <path d="M 64.584 258.618443 
L 282.556603 258.618443 
" clip-path="url(#p7125b68177)" style="fill: none; stroke: #e5ebee; stroke-width: 0.65; stroke-linecap: square"/>
     </g>
     <g id="line2d_6"/>
     <g id="text_6">
      <text style="font-size: 10px; font-family: 'DejaVu Sans'; text-anchor: end; fill: #63737c" x="58.584" y="262.417662" transform="rotate(-0 58.584 262.417662)">−2</text>
     </g>
    </g>
    <g id="ytick_2">
     <g id="line2d_7">
      <path d="M 64.584 234.840409 
L 282.556603 234.840409 
" clip-path="url(#p7125b68177)" style="fill: none; stroke: #e5ebee; stroke-width: 0.65; stroke-linecap: square"/>
     </g>
     <g id="line2d_8"/>
     <g id="text_7">
      <text style="font-size: 10px; font-family: 'DejaVu Sans'; text-anchor: end; fill: #63737c" x="58.584" y="238.639628" transform="rotate(-0 58.584 238.639628)">−1</text>
     </g>
    </g>
    <g id="ytick_3">
     <g id="line2d_9">
      <path d="M 64.584 211.062375 
L 282.556603 211.062375 
" clip-path="url(#p7125b68177)" style="fill: none; stroke: #e5ebee; stroke-width: 0.65; stroke-linecap: square"/>
     </g>
     <g id="line2d_10"/>
     <g id="text_8">
      <text style="font-size: 10px; font-family: 'DejaVu Sans'; text-anchor: end; fill: #63737c" x="58.584" y="214.861594" transform="rotate(-0 58.584 214.861594)">0</text>
     </g>
    </g>
    <g id="ytick_4">
     <g id="line2d_11">
      <path d="M 64.584 187.284341 
L 282.556603 187.284341 
" clip-path="url(#p7125b68177)" style="fill: none; stroke: #e5ebee; stroke-width: 0.65; stroke-linecap: square"/>
     </g>
     <g id="line2d_12"/>
     <g id="text_9">
      <text style="font-size: 10px; font-family: 'DejaVu Sans'; text-anchor: end; fill: #63737c" x="58.584" y="191.08356" transform="rotate(-0 58.584 191.08356)">1</text>
     </g>
    </g>
    <g id="ytick_5">
     <g id="line2d_13">
      <path d="M 64.584 163.506307 
L 282.556603 163.506307 
" clip-path="url(#p7125b68177)" style="fill: none; stroke: #e5ebee; stroke-width: 0.65; stroke-linecap: square"/>
     </g>
     <g id="line2d_14"/>
     <g id="text_10">
      <text style="font-size: 10px; font-family: 'DejaVu Sans'; text-anchor: end; fill: #63737c" x="58.584" y="167.305526" transform="rotate(-0 58.584 167.305526)">2</text>
     </g>
    </g>
    <g id="ytick_6">
     <g id="line2d_15">
      <path d="M 64.584 139.728273 
L 282.556603 139.728273 
" clip-path="url(#p7125b68177)" style="fill: none; stroke: #e5ebee; stroke-width: 0.65; stroke-linecap: square"/>
     </g>
     <g id="line2d_16"/>
     <g id="text_11">
      <text style="font-size: 10px; font-family: 'DejaVu Sans'; text-anchor: end; fill: #63737c" x="58.584" y="143.527491" transform="rotate(-0 58.584 143.527491)">3</text>
     </g>
    </g>
    <g id="ytick_7">
     <g id="line2d_17">
      <path d="M 64.584 115.950239 
L 282.556603 115.950239 
" clip-path="url(#p7125b68177)" style="fill: none; stroke: #e5ebee; stroke-width: 0.65; stroke-linecap: square"/>
     </g>
     <g id="line2d_18"/>
     <g id="text_12">
      <text style="font-size: 10px; font-family: 'DejaVu Sans'; text-anchor: end; fill: #63737c" x="58.584" y="119.749457" transform="rotate(-0 58.584 119.749457)">4</text>
     </g>
    </g>
    <g id="text_13">
     <text style="font-size: 11px; font-family: 'DejaVu Sans'" transform="translate(25.236562 299.046578) rotate(-90)">Proposal entropy change from unsteered</text>
     <text style="font-size: 11px; font-family: 'DejaVu Sans'" transform="translate(37.554156 275.213531) rotate(-90)">Preclip diagonal Gaussian (nats)</text>
    </g>
   </g>
   <g id="FillBetweenPolyCollection_1">
    <defs>
     <path id="m0fee1a458e" d="M 64.584 -134.537625 
L 64.584 -134.537625 
L 80.153472 -131.15926 
L 95.722943 -125.156857 
L 111.292415 -126.213999 
L 126.861886 -132.965666 
L 142.431358 -133.733584 
L 158.00083 -127.75698 
L 173.570301 -109.519341 
L 189.139773 -122.6085 
L 204.709245 -123.500117 
L 220.278716 -143.439688 
L 235.848188 -158.048282 
L 251.417659 -131.987464 
L 266.987131 -99.490385 
L 282.556603 -86.714182 
L 282.556603 -185.408649 
L 282.556603 -185.408649 
L 266.987131 -175.949186 
L 251.417659 -192.222826 
L 235.848188 -215.773408 
L 220.278716 -195.572897 
L 204.709245 -166.658807 
L 189.139773 -149.454974 
L 173.570301 -132.780377 
L 158.00083 -141.738694 
L 142.431358 -145.236854 
L 126.861886 -142.728516 
L 111.292415 -138.392865 
L 95.722943 -135.617013 
L 80.153472 -135.46815 
L 64.584 -134.537625 
z
"/>
    </defs>
    <g clip-path="url(#p7125b68177)">
     <use xlink:href="#m0fee1a458e" x="0" y="345.6" style="fill: #247f85; fill-opacity: 0.15"/>
    </g>
   </g>
   <g id="FillBetweenPolyCollection_2">
    <defs>
     <path id="m2247944772" d="M 64.584 -134.537625 
L 64.584 -134.537625 
L 80.153472 -130.311122 
L 95.722943 -120.825958 
L 111.292415 -118.921865 
L 126.861886 -117.566911 
L 142.431358 -122.637921 
L 158.00083 -125.299096 
L 173.570301 -116.570265 
L 189.139773 -113.990628 
L 204.709245 -118.626649 
L 220.278716 -130.433692 
L 235.848188 -148.84169 
L 251.417659 -103.165476 
L 266.987131 -100.356865 
L 282.556603 -129.118237 
L 282.556603 -197.953966 
L 282.556603 -197.953966 
L 266.987131 -150.912296 
L 251.417659 -153.484363 
L 235.848188 -186.632896 
L 220.278716 -172.932197 
L 204.709245 -157.497205 
L 189.139773 -143.538365 
L 173.570301 -138.2819 
L 158.00083 -141.124659 
L 142.431358 -138.413059 
L 126.861886 -137.191211 
L 111.292415 -135.008479 
L 95.722943 -133.138422 
L 80.153472 -134.837256 
L 64.584 -134.537625 
z
"/>
    </defs>
    <g clip-path="url(#p7125b68177)">
     <use xlink:href="#m2247944772" x="0" y="345.6" style="fill: #bd7836; fill-opacity: 0.15"/>
    </g>
   </g>
   <g id="line2d_19">
    <path d="M 64.584 211.062375 
L 80.153472 212.286295 
L 95.722943 215.213065 
L 111.292415 213.296568 
L 126.861886 207.752909 
L 142.431358 206.114781 
L 158.00083 210.852163 
L 173.570301 224.450141 
L 189.139773 209.568263 
L 204.709245 200.520538 
L 220.278716 176.093707 
L 235.848188 158.689155 
L 251.417659 183.494855 
L 266.987131 207.880214 
L 282.556603 209.538585 
" clip-path="url(#p7125b68177)" style="fill: none; stroke: #247f85; stroke-width: 2.2; stroke-linecap: square"/>
   </g>
   <g id="line2d_20">
    <path d="M 64.584 211.062375 
L 80.153472 213.025811 
L 95.722943 218.61781 
L 111.292415 218.634828 
L 126.861886 218.220939 
L 142.431358 215.07451 
L 158.00083 212.388122 
L 173.570301 218.173917 
L 189.139773 216.835503 
L 204.709245 207.538073 
L 220.278716 193.917055 
L 235.848188 177.862707 
L 251.417659 217.27508 
L 266.987131 219.96542 
L 282.556603 182.063898 
" clip-path="url(#p7125b68177)" style="fill: none; stroke: #bd7836; stroke-width: 2.2; stroke-linecap: square"/>
   </g>
   <g id="line2d_21">
    <path d="M 64.584 211.062375 
L 282.556603 211.062375 
" clip-path="url(#p7125b68177)" style="fill: none; stroke-dasharray: 2.96,1.28; stroke-dashoffset: 0; stroke: #63737c; stroke-width: 0.8"/>
   </g>
   <g id="patch_3">
    <path d="M 64.584 266.112 
L 282.556603 266.112 
" style="fill: none; stroke: #cad4d9; stroke-width: 0.8; stroke-linejoin: miter; stroke-linecap: square"/>
   </g>
   <g id="text_14">
    <text style="font-weight: 700; font-size: 13px; font-family: 'DejaVu Sans'; text-anchor: start; fill: #24343e" x="64.584" y="97.136" transform="rotate(-0 64.584 97.136)">Reach</text>
   </g>
  </g>
  <g id="axes_2">
   <g id="patch_4">
    <path d="M 323.971397 266.112 
L 541.944 266.112 
L 541.944 107.136 
L 323.971397 107.136 
z
" style="fill: #ffffff"/>
   </g>
   <g id="matplotlib.axis_3">
    <g id="xtick_5">
     <g id="line2d_22"/>
     <g id="text_15">
      <text style="font-size: 10px; font-family: 'DejaVu Sans'; text-anchor: middle; fill: #63737c" x="323.971397" y="279.710438" transform="rotate(-0 323.971397 279.710438)">1</text>
     </g>
    </g>
    <g id="xtick_6">
     <g id="line2d_23"/>
     <g id="text_16">
      <text style="font-size: 10px; font-family: 'DejaVu Sans'; text-anchor: middle; fill: #63737c" x="386.249284" y="279.710438" transform="rotate(-0 386.249284 279.710438)">5</text>
     </g>
    </g>
    <g id="xtick_7">
     <g id="line2d_24"/>
     <g id="text_17">
      <text style="font-size: 10px; font-family: 'DejaVu Sans'; text-anchor: middle; fill: #63737c" x="464.096642" y="279.710438" transform="rotate(-0 464.096642 279.710438)">10</text>
     </g>
    </g>
    <g id="xtick_8">
     <g id="line2d_25"/>
     <g id="text_18">
      <text style="font-size: 10px; font-family: 'DejaVu Sans'; text-anchor: middle; fill: #63737c" x="541.944" y="279.710438" transform="rotate(-0 541.944 279.710438)">15</text>
     </g>
    </g>
    <g id="text_19">
     <text style="font-size: 11px; font-family: 'DejaVu Sans'; text-anchor: middle" x="432.957699" y="294.148406" transform="rotate(-0 432.957699 294.148406)">CEM iteration</text>
    </g>
   </g>
   <g id="matplotlib.axis_4">
    <g id="ytick_8">
     <g id="line2d_26">
      <path d="M 323.971397 258.618443 
L 541.944 258.618443 
" clip-path="url(#p0ff59060e5)" style="fill: none; stroke: #e5ebee; stroke-width: 0.65; stroke-linecap: square"/>
     </g>
     <g id="line2d_27"/>
    </g>
    <g id="ytick_9">
     <g id="line2d_28">
      <path d="M 323.971397 234.840409 
L 541.944 234.840409 
" clip-path="url(#p0ff59060e5)" style="fill: none; stroke: #e5ebee; stroke-width: 0.65; stroke-linecap: square"/>
     </g>
     <g id="line2d_29"/>
    </g>
    <g id="ytick_10">
     <g id="line2d_30">
      <path d="M 323.971397 211.062375 
L 541.944 211.062375 
" clip-path="url(#p0ff59060e5)" style="fill: none; stroke: #e5ebee; stroke-width: 0.65; stroke-linecap: square"/>
     </g>
     <g id="line2d_31"/>
    </g>
    <g id="ytick_11">
     <g id="line2d_32">
      <path d="M 323.971397 187.284341 
L 541.944 187.284341 
" clip-path="url(#p0ff59060e5)" style="fill: none; stroke: #e5ebee; stroke-width: 0.65; stroke-linecap: square"/>
     </g>
     <g id="line2d_33"/>
    </g>
    <g id="ytick_12">
     <g id="line2d_34">
      <path d="M 323.971397 163.506307 
L 541.944 163.506307 
" clip-path="url(#p0ff59060e5)" style="fill: none; stroke: #e5ebee; stroke-width: 0.65; stroke-linecap: square"/>
     </g>
     <g id="line2d_35"/>
    </g>
    <g id="ytick_13">
     <g id="line2d_36">
      <path d="M 323.971397 139.728273 
L 541.944 139.728273 
" clip-path="url(#p0ff59060e5)" style="fill: none; stroke: #e5ebee; stroke-width: 0.65; stroke-linecap: square"/>
     </g>
     <g id="line2d_37"/>
    </g>
    <g id="ytick_14">
     <g id="line2d_38">
      <path d="M 323.971397 115.950239 
L 541.944 115.950239 
" clip-path="url(#p0ff59060e5)" style="fill: none; stroke: #e5ebee; stroke-width: 0.65; stroke-linecap: square"/>
     </g>
     <g id="line2d_39"/>
    </g>
   </g>
   <g id="FillBetweenPolyCollection_3">
    <defs>
     <path id="md1da1d6e4e" d="M 323.971397 -134.537625 
L 323.971397 -134.537625 
L 339.540869 -134.537625 
L 355.110341 -134.444857 
L 370.679812 -129.55309 
L 386.249284 -131.765116 
L 401.818755 -132.222034 
L 417.388227 -126.882176 
L 432.957699 -122.393378 
L 448.52717 -123.208834 
L 464.096642 -118.267686 
L 479.666114 -146.846343 
L 495.235585 -156.832709 
L 510.805057 -154.463157 
L 526.374528 -149.941809 
L 541.944 -161.511543 
L 541.944 -231.237818 
L 541.944 -231.237818 
L 526.374528 -205.994237 
L 510.805057 -203.738585 
L 495.235585 -199.993184 
L 479.666114 -189.519711 
L 464.096642 -155.10929 
L 448.52717 -148.078739 
L 432.957699 -144.668287 
L 417.388227 -142.21725 
L 401.818755 -139.576901 
L 386.249284 -138.52263 
L 370.679812 -136.271456 
L 355.110341 -137.010823 
L 339.540869 -136.025712 
L 323.971397 -134.537625 
z
"/>
    </defs>
    <g clip-path="url(#p0ff59060e5)">
     <use xlink:href="#md1da1d6e4e" x="0" y="345.6" style="fill: #247f85; fill-opacity: 0.15"/>
    </g>
   </g>
   <g id="FillBetweenPolyCollection_4">
    <defs>
     <path id="mbc873a97b0" d="M 323.971397 -134.537625 
L 323.971397 -134.537625 
L 339.540869 -133.708295 
L 355.110341 -131.741958 
L 370.679812 -130.882208 
L 386.249284 -131.410955 
L 401.818755 -134.266479 
L 417.388227 -131.363454 
L 432.957699 -132.275586 
L 448.52717 -135.396019 
L 464.096642 -133.52051 
L 479.666114 -132.04385 
L 495.235585 -133.429645 
L 510.805057 -135.430071 
L 526.374528 -140.462611 
L 541.944 -144.356523 
L 541.944 -191.05773 
L 541.944 -191.05773 
L 526.374528 -179.769704 
L 510.805057 -171.55523 
L 495.235585 -155.342273 
L 479.666114 -151.50242 
L 464.096642 -145.37879 
L 448.52717 -143.587971 
L 432.957699 -138.337616 
L 417.388227 -133.787075 
L 401.818755 -137.057382 
L 386.249284 -138.269006 
L 370.679812 -136.535905 
L 355.110341 -136.179892 
L 339.540869 -135.654552 
L 323.971397 -134.537625 
z
"/>
    </defs>
    <g clip-path="url(#p0ff59060e5)">
     <use xlink:href="#mbc873a97b0" x="0" y="345.6" style="fill: #bd7836; fill-opacity: 0.15"/>
    </g>
   </g>
   <g id="line2d_40">
    <path d="M 323.971397 211.062375 
L 339.540869 210.318331 
L 355.110341 209.87216 
L 370.679812 212.687727 
L 386.249284 210.456127 
L 401.818755 209.700533 
L 417.388227 211.050287 
L 432.957699 212.069168 
L 448.52717 209.956214 
L 464.096642 208.911512 
L 479.666114 177.416973 
L 495.235585 167.187054 
L 510.805057 166.499129 
L 526.374528 167.631977 
L 541.944 149.225319 
" clip-path="url(#p0ff59060e5)" style="fill: none; stroke: #247f85; stroke-width: 2.2; stroke-linecap: square"/>
   </g>
   <g id="line2d_41">
    <path d="M 323.971397 211.062375 
L 339.540869 210.918577 
L 355.110341 211.639075 
L 370.679812 211.890944 
L 386.249284 210.76002 
L 401.818755 209.93807 
L 417.388227 213.024735 
L 432.957699 210.293399 
L 448.52717 206.108005 
L 464.096642 206.15035 
L 479.666114 203.826865 
L 495.235585 201.214041 
L 510.805057 192.10735 
L 526.374528 185.483842 
L 541.944 177.892873 
" clip-path="url(#p0ff59060e5)" style="fill: none; stroke: #bd7836; stroke-width: 2.2; stroke-linecap: square"/>
   </g>
   <g id="line2d_42">
    <path d="M 323.971397 211.062375 
L 541.944 211.062375 
" clip-path="url(#p0ff59060e5)" style="fill: none; stroke-dasharray: 2.96,1.28; stroke-dashoffset: 0; stroke: #63737c; stroke-width: 0.8"/>
   </g>
   <g id="patch_5">
    <path d="M 323.971397 266.112 
L 541.944 266.112 
" style="fill: none; stroke: #cad4d9; stroke-width: 0.8; stroke-linejoin: miter; stroke-linecap: square"/>
   </g>
   <g id="text_20">
    <text style="font-weight: 700; font-size: 13px; font-family: 'DejaVu Sans'; text-anchor: start; fill: #24343e" x="323.971397" y="97.136" transform="rotate(-0 323.971397 97.136)">Reach-Wall</text>
   </g>
  </g>
  <g id="text_21">
   <text style="font-weight: 700; font-size: 18px; font-family: 'DejaVu Sans'; text-anchor: start; fill: #24343e" x="30.888" y="20.736" transform="rotate(-0 30.888 20.736)">Does steering expand or contract the search?</text>
  </g>
  <g id="text_22">
   <text style="font-size: 11px; font-family: 'DejaVu Sans'; text-anchor: start; fill: #63737c" x="30.888" y="43.2" transform="rotate(-0 30.888 43.2)">Same initial candidate actions. Separate adaptive searches.</text>
  </g>
  <g id="text_23">
   <text style="font-size: 10.5px; font-family: 'DejaVu Sans'; text-anchor: start; fill: #24343e" x="30.888" y="312.4224" transform="rotate(-0 30.888 312.4224)">56 new development contexts · n=28/task · means ±1 scenario SE</text>
  </g>
  <g id="text_24">
   <text style="font-size: 9.2px; font-family: 'DejaVu Sans'; text-anchor: start; fill: #63737c" x="30.888" y="330.3936" transform="rotate(-0 30.888 330.3936)">Concurrent unsteered reference. Original eight cases excluded. Different does not mean better.</text>
  </g>
  <g id="legend_1">
   <g id="line2d_43">
    <path d="M 40.788 76.616281 
L 51.788 76.616281 
L 62.788 76.616281 
" style="fill: none; stroke: #247f85; stroke-width: 2.2; stroke-linecap: square"/>
   </g>
   <g id="text_25">
    <text style="font-size: 11px; font-family: 'DejaVu Sans'; text-anchor: start" x="71.588" y="80.466281" transform="rotate(-0 71.588 80.466281)">Intervention (rank-four)</text>
   </g>
   <g id="line2d_44">
    <path d="M 223.475656 76.616281 
L 234.475656 76.616281 
L 245.475656 76.616281 
" style="fill: none; stroke: #bd7836; stroke-width: 2.2; stroke-linecap: square"/>
   </g>
   <g id="text_26">
    <text style="font-size: 11px; font-family: 'DejaVu Sans'; text-anchor: start" x="254.275656" y="80.466281" transform="rotate(-0 254.275656 80.466281)">Calibrated random</text>
   </g>
  </g>
 </g>
 <defs>
  <clipPath id="p7125b68177">
   <rect x="64.584" y="107.136" width="217.972603" height="158.976"/>
  </clipPath>
  <clipPath id="p0ff59060e5">
   <rect x="323.971397" y="107.136" width="217.972603" height="158.976"/>
  </clipPath>
 </defs>
</svg>
