<?xml version="1.0" encoding="utf-8" standalone="no"?>
<!DOCTYPE svg PUBLIC "-//W3C//DTD SVG 1.1//EN"
  "http://www.w3.org/Graphics/SVG/1.1/DTD/svg11.dtd">
<svg xmlns:xlink="http://www.w3.org/1999/xlink" width="489.6pt" height="406.8pt" viewBox="0 0 489.6 406.8" xmlns="http://www.w3.org/2000/svg" version="1.1">
 <metadata>
  <rdf:RDF xmlns:dc="http://purl.org/dc/elements/1.1/" xmlns:cc="http://creativecommons.org/ns#" xmlns:rdf="http://www.w3.org/1999/02/22-rdf-syntax-ns#">
   <cc:Work>
    <dc:type rdf:resource="http://purl.org/dc/dcmitype/StillImage"/>
    <dc:format>image/svg+xml</dc:format>
    <dc:creator>
     <cc:Agent>
      <dc:title>Matplotlib v3.10.9, https://matplotlib.org/</dc:title>
     </cc:Agent>
    </dc:creator>
   </cc:Work>
  </rdf:RDF>
 </metadata>
 <defs>
  <style type="text/css">*{stroke-linejoin: round; stroke-linecap: butt}</style>
 </defs>
 <g id="figure_1">
  <g id="patch_1">
   <path d="M 0 406.8 
L 489.6 406.8 
L 489.6 0 
L 0 0 
z
" style="fill: #ffffff"/>
  </g>
  <g id="axes_1">
   <g id="patch_2">
    <path d="M 46.512 150.669509 
L 244.577455 150.669509 
L 244.577455 44.748 
L 46.512 44.748 
z
" style="fill: #ffffff"/>
   </g>
   <g id="patch_3">
    <path d="M 47.388396 150.669509 
L 100.848541 150.669509 
L 100.848541 44.748 
L 47.388396 44.748 
z
" clip-path="url(#pdabfc33a9d)" style="fill: #edf0e7; stroke: #edf0e7; stroke-linejoin: miter"/>
   </g>
   <g id="matplotlib.axis_1">
    <g id="xtick_1">
     <g id="line2d_1"/>
     <g id="text_1">
      <text style="font-size: 10.5px; font-family: 'DejaVu Sans'; text-anchor: middle" x="57.905146" y="162.147869" transform="rotate(-0 57.905146 162.147869)">D</text>
     </g>
    </g>
    <g id="xtick_2">
     <g id="line2d_2"/>
     <g id="text_2">
      <text style="font-size: 10.5px; font-family: 'DejaVu Sans'; text-anchor: middle" x="75.433062" y="162.147869" transform="rotate(-0 75.433062 162.147869)">I</text>
     </g>
    </g>
    <g id="xtick_3">
     <g id="line2d_3"/>
     <g id="text_3">
      <text style="font-size: 10.5px; font-family: 'DejaVu Sans'; text-anchor: middle" x="92.960978" y="162.147869" transform="rotate(-0 92.960978 162.147869)">F</text>
     </g>
    </g>
    <g id="xtick_4">
     <g id="line2d_4"/>
     <g id="text_4">
      <text style="font-size: 10.5px; font-family: 'DejaVu Sans'; text-anchor: middle" x="110.488895" y="162.147869" transform="rotate(-0 110.488895 162.147869)">N</text>
     </g>
    </g>
    <g id="xtick_5">
     <g id="line2d_5"/>
     <g id="text_5">
      <text style="font-size: 10.5px; font-family: 'DejaVu Sans'; text-anchor: middle" x="128.016811" y="162.147869" transform="rotate(-0 128.016811 162.147869)">R</text>
     </g>
    </g>
    <g id="xtick_6">
     <g id="line2d_6"/>
     <g id="text_6">
      <text style="font-size: 10.5px; font-family: 'DejaVu Sans'; text-anchor: middle" x="145.544727" y="162.147869" transform="rotate(-0 145.544727 162.147869)">rR</text>
     </g>
    </g>
    <g id="xtick_7">
     <g id="line2d_7"/>
     <g id="text_7">
      <text style="font-size: 10.5px; font-family: 'DejaVu Sans'; text-anchor: middle" x="163.072644" y="162.147869" transform="rotate(-0 163.072644 162.147869)">C</text>
     </g>
    </g>
    <g id="xtick_8">
     <g id="line2d_8"/>
     <g id="text_8">
      <text style="font-size: 10.5px; font-family: 'DejaVu Sans'; text-anchor: middle" x="180.60056" y="162.147869" transform="rotate(-0 180.60056 162.147869)">rC</text>
     </g>
    </g>
    <g id="xtick_9">
     <g id="line2d_9"/>
     <g id="text_9">
      <text style="font-size: 10.5px; font-family: 'DejaVu Sans'; text-anchor: middle" x="198.128476" y="162.147869" transform="rotate(-0 198.128476 162.147869)">VA</text>
     </g>
    </g>
    <g id="xtick_10">
     <g id="line2d_10"/>
     <g id="text_10">
      <text style="font-size: 10.5px; font-family: 'DejaVu Sans'; text-anchor: middle" x="215.656393" y="162.147869" transform="rotate(-0 215.656393 162.147869)">V</text>
     </g>
    </g>
    <g id="xtick_11">
     <g id="line2d_11"/>
     <g id="text_11">
      <text style="font-size: 10.5px; font-family: 'DejaVu Sans'; text-anchor: middle" x="233.184309" y="162.147869" transform="rotate(-0 233.184309 162.147869)">A</text>
     </g>
    </g>
   </g>
   <g id="matplotlib.axis_2">
    <g id="ytick_1">
     <g id="line2d_12">
      <path d="M 46.512 150.669509 
L 244.577455 150.669509 
" clip-path="url(#pdabfc33a9d)" style="fill: none; stroke: #b0b0b0; stroke-opacity: 0.15; stroke-width: 0.8; stroke-linecap: square"/>
     </g>
     <g id="line2d_13"/>
     <g id="text_12">
      <text style="font-size: 10.5px; font-family: 'DejaVu Sans'; text-anchor: end" x="43.012" y="154.658689" transform="rotate(-0 43.012 154.658689)">0</text>
     </g>
    </g>
    <g id="ytick_2">
     <g id="line2d_14">
      <path d="M 46.512 100.230695 
L 244.577455 100.230695 
" clip-path="url(#pdabfc33a9d)" style="fill: none; stroke: #b0b0b0; stroke-opacity: 0.15; stroke-width: 0.8; stroke-linecap: square"/>
     </g>
     <g id="line2d_15"/>
     <g id="text_13">
      <text style="font-size: 10.5px; font-family: 'DejaVu Sans'; text-anchor: end" x="43.012" y="104.219875" transform="rotate(-0 43.012 104.219875)">50</text>
     </g>
    </g>
    <g id="ytick_3">
     <g id="line2d_16">
      <path d="M 46.512 49.791881 
L 244.577455 49.791881 
" clip-path="url(#pdabfc33a9d)" style="fill: none; stroke: #b0b0b0; stroke-opacity: 0.15; stroke-width: 0.8; stroke-linecap: square"/>
     </g>
     <g id="line2d_17"/>
     <g id="text_14">
      <text style="font-size: 10.5px; font-family: 'DejaVu Sans'; text-anchor: end" x="43.012" y="53.781061" transform="rotate(-0 43.012 53.781061)">100</text>
     </g>
    </g>
    <g id="text_15">
     <text style="font-size: 10.5px; font-family: 'DejaVu Sans'; text-anchor: middle" x="16.786453" y="97.708755" transform="rotate(-90 16.786453 97.708755)">Success (%)</text>
    </g>
   </g>
   <g id="line2d_18">
    <path d="M 101.724936 150.669509 
L 101.724936 44.748 
" clip-path="url(#pdabfc33a9d)" style="fill: none; stroke-dasharray: 2.59,1.12; stroke-dashoffset: 0; stroke: #647184; stroke-width: 0.7"/>
   </g>
   <g id="patch_4">
    <path d="M 46.512 150.669509 
L 46.512 44.748 
" style="fill: none; stroke: #000000; stroke-width: 0.8; stroke-linejoin: miter; stroke-linecap: square"/>
   </g>
   <g id="patch_5">
    <path d="M 46.512 150.669509 
L 244.577455 150.669509 
" style="fill: none; stroke: #000000; stroke-width: 0.8; stroke-linejoin: miter; stroke-linecap: square"/>
   </g>
   <g id="patch_6">
    <path d="M 51.156898 150.669509 
L 64.653393 150.669509 
L 64.653393 105.476332 
L 51.156898 105.476332 
z
" clip-path="url(#pdabfc33a9d)" style="fill: #c4c7c3"/>
   </g>
   <g id="patch_7">
    <path d="M 68.684814 150.669509 
L 82.18131 150.669509 
L 82.18131 91.95873 
L 68.684814 91.95873 
z
" clip-path="url(#pdabfc33a9d)" style="fill: #92998f"/>
   </g>
   <g id="patch_8">
    <path d="M 86.21273 150.669509 
L 99.709226 150.669509 
L 99.709226 101.239472 
L 86.21273 101.239472 
z
" clip-path="url(#pdabfc33a9d)" style="fill: #a7b09e"/>
   </g>
   <g id="patch_9">
    <path d="M 103.740647 150.669509 
L 117.237142 150.669509 
L 117.237142 96.027461 
L 103.740647 96.027461 
z
" clip-path="url(#pdabfc33a9d)" style="fill: #626a67"/>
   </g>
   <g id="patch_10">
    <path d="M 121.268563 150.669509 
L 134.765059 150.669509 
L 134.765059 96.027461 
L 121.268563 96.027461 
z
" clip-path="url(#pdabfc33a9d)" style="fill: #4e6fa5"/>
   </g>
   <g id="patch_11">
    <path d="M 138.796479 150.669509 
L 152.292975 150.669509 
L 152.292975 105.484739 
L 138.796479 105.484739 
z
" clip-path="url(#pdabfc33a9d)" style="fill: #a9bbd6"/>
   </g>
   <g id="patch_12">
    <path d="M 156.324396 150.669509 
L 169.820891 150.669509 
L 169.820891 102.332313 
L 156.324396 102.332313 
z
" clip-path="url(#pdabfc33a9d)" style="fill: #24796c"/>
   </g>
   <g id="patch_13">
    <path d="M 173.852312 150.669509 
L 187.348808 150.669509 
L 187.348808 103.383121 
L 173.852312 103.383121 
z
" clip-path="url(#pdabfc33a9d)" style="fill: #98bfb2"/>
   </g>
   <g id="patch_14">
    <path d="M 191.380228 150.669509 
L 204.876724 150.669509 
L 204.876724 98.129078 
L 191.380228 98.129078 
z
" clip-path="url(#pdabfc33a9d)" style="fill: #b67930"/>
   </g>
   <g id="patch_15">
    <path d="M 208.908145 150.669509 
L 222.40464 150.669509 
L 222.40464 96.027461 
L 208.908145 96.027461 
z
" clip-path="url(#pdabfc33a9d)" style="fill: #cfa86d"/>
   </g>
   <g id="patch_16">
    <path d="M 226.436061 150.669509 
L 239.932557 150.669509 
L 239.932557 102.332313 
L 226.436061 102.332313 
z
" clip-path="url(#pdabfc33a9d)" style="fill: #b05443"/>
   </g>
   <g id="text_16">
    <text style="font-weight: 700; font-size: 12px; font-family: 'DejaVu Sans'; text-anchor: middle" x="145.544727" y="38.748" transform="rotate(-0 145.544727 38.748)">Reach</text>
   </g>
  </g>
  <g id="axes_2">
   <g id="patch_17">
    <path d="M 284.190545 150.669509 
L 482.256 150.669509 
L 482.256 44.748 
L 284.190545 44.748 
z
" style="fill: #ffffff"/>
   </g>
   <g id="patch_18">
    <path d="M 285.066941 150.669509 
L 338.527086 150.669509 
L 338.527086 44.748 
L 285.066941 44.748 
z
" clip-path="url(#pf2dc95ed26)" style="fill: #edf0e7; stroke: #edf0e7; stroke-linejoin: miter"/>
   </g>
   <g id="matplotlib.axis_3">
    <g id="xtick_12">
     <g id="line2d_19"/>
     <g id="text_17">
      <text style="font-size: 10.5px; font-family: 'DejaVu Sans'; text-anchor: middle" x="295.583691" y="162.147869" transform="rotate(-0 295.583691 162.147869)">D</text>
     </g>
    </g>
    <g id="xtick_13">
     <g id="line2d_20"/>
     <g id="text_18">
      <text style="font-size: 10.5px; font-family: 'DejaVu Sans'; text-anchor: middle" x="313.111607" y="162.147869" transform="rotate(-0 313.111607 162.147869)">I</text>
     </g>
    </g>
    <g id="xtick_14">
     <g id="line2d_21"/>
     <g id="text_19">
      <text style="font-size: 10.5px; font-family: 'DejaVu Sans'; text-anchor: middle" x="330.639524" y="162.147869" transform="rotate(-0 330.639524 162.147869)">F</text>
     </g>
    </g>
    <g id="xtick_15">
     <g id="line2d_22"/>
     <g id="text_20">
      <text style="font-size: 10.5px; font-family: 'DejaVu Sans'; text-anchor: middle" x="348.16744" y="162.147869" transform="rotate(-0 348.16744 162.147869)">N</text>
     </g>
    </g>
    <g id="xtick_16">
     <g id="line2d_23"/>
     <g id="text_21">
      <text style="font-size: 10.5px; font-family: 'DejaVu Sans'; text-anchor: middle" x="365.695356" y="162.147869" transform="rotate(-0 365.695356 162.147869)">R</text>
     </g>
    </g>
    <g id="xtick_17">
     <g id="line2d_24"/>
     <g id="text_22">
      <text style="font-size: 10.5px; font-family: 'DejaVu Sans'; text-anchor: middle" x="383.223273" y="162.147869" transform="rotate(-0 383.223273 162.147869)">rR</text>
     </g>
    </g>
    <g id="xtick_18">
     <g id="line2d_25"/>
     <g id="text_23">
      <text style="font-size: 10.5px; font-family: 'DejaVu Sans'; text-anchor: middle" x="400.751189" y="162.147869" transform="rotate(-0 400.751189 162.147869)">C</text>
     </g>
    </g>
    <g id="xtick_19">
     <g id="line2d_26"/>
     <g id="text_24">
      <text style="font-size: 10.5px; font-family: 'DejaVu Sans'; text-anchor: middle" x="418.279105" y="162.147869" transform="rotate(-0 418.279105 162.147869)">rC</text>
     </g>
    </g>
    <g id="xtick_20">
     <g id="line2d_27"/>
     <g id="text_25">
      <text style="font-size: 10.5px; font-family: 'DejaVu Sans'; text-anchor: middle" x="435.807022" y="162.147869" transform="rotate(-0 435.807022 162.147869)">VA</text>
     </g>
    </g>
    <g id="xtick_21">
     <g id="line2d_28"/>
     <g id="text_26">
      <text style="font-size: 10.5px; font-family: 'DejaVu Sans'; text-anchor: middle" x="453.334938" y="162.147869" transform="rotate(-0 453.334938 162.147869)">V</text>
     </g>
    </g>
    <g id="xtick_22">
     <g id="line2d_29"/>
     <g id="text_27">
      <text style="font-size: 10.5px; font-family: 'DejaVu Sans'; text-anchor: middle" x="470.862854" y="162.147869" transform="rotate(-0 470.862854 162.147869)">A</text>
     </g>
    </g>
   </g>
   <g id="matplotlib.axis_4">
    <g id="ytick_4">
     <g id="line2d_30">
      <path d="M 284.190545 150.669509 
L 482.256 150.669509 
" clip-path="url(#pf2dc95ed26)" style="fill: none; stroke: #b0b0b0; stroke-opacity: 0.15; stroke-width: 0.8; stroke-linecap: square"/>
     </g>
     <g id="line2d_31"/>
     <g id="text_28">
      <text style="font-size: 10.5px; font-family: 'DejaVu Sans'; text-anchor: end" x="280.690545" y="154.658689" transform="rotate(-0 280.690545 154.658689)">0</text>
     </g>
    </g>
    <g id="ytick_5">
     <g id="line2d_32">
      <path d="M 284.190545 100.230695 
L 482.256 100.230695 
" clip-path="url(#pf2dc95ed26)" style="fill: none; stroke: #b0b0b0; stroke-opacity: 0.15; stroke-width: 0.8; stroke-linecap: square"/>
     </g>
     <g id="line2d_33"/>
     <g id="text_29">
      <text style="font-size: 10.5px; font-family: 'DejaVu Sans'; text-anchor: end" x="280.690545" y="104.219875" transform="rotate(-0 280.690545 104.219875)">50</text>
     </g>
    </g>
    <g id="ytick_6">
     <g id="line2d_34">
      <path d="M 284.190545 49.791881 
L 482.256 49.791881 
" clip-path="url(#pf2dc95ed26)" style="fill: none; stroke: #b0b0b0; stroke-opacity: 0.15; stroke-width: 0.8; stroke-linecap: square"/>
     </g>
     <g id="line2d_35"/>
     <g id="text_30">
      <text style="font-size: 10.5px; font-family: 'DejaVu Sans'; text-anchor: end" x="280.690545" y="53.781061" transform="rotate(-0 280.690545 53.781061)">100</text>
     </g>
    </g>
   </g>
   <g id="line2d_36">
    <path d="M 339.403482 150.669509 
L 339.403482 44.748 
" clip-path="url(#pf2dc95ed26)" style="fill: none; stroke-dasharray: 2.59,1.12; stroke-dashoffset: 0; stroke: #647184; stroke-width: 0.7"/>
   </g>
   <g id="patch_19">
    <path d="M 284.190545 150.669509 
L 284.190545 44.748 
" style="fill: none; stroke: #000000; stroke-width: 0.8; stroke-linejoin: miter; stroke-linecap: square"/>
   </g>
   <g id="patch_20">
    <path d="M 284.190545 150.669509 
L 482.256 150.669509 
" style="fill: none; stroke: #000000; stroke-width: 0.8; stroke-linejoin: miter; stroke-linecap: square"/>
   </g>
   <g id="patch_21">
    <path d="M 288.835443 150.669509 
L 302.331939 150.669509 
L 302.331939 115.261462 
L 288.835443 115.261462 
z
" clip-path="url(#pf2dc95ed26)" style="fill: #c4c7c3"/>
   </g>
   <g id="patch_22">
    <path d="M 306.36336 150.669509 
L 319.859855 150.669509 
L 319.859855 108.704416 
L 306.36336 108.704416 
z
" clip-path="url(#pf2dc95ed26)" style="fill: #92998f"/>
   </g>
   <g id="patch_23">
    <path d="M 323.891276 150.669509 
L 337.387772 150.669509 
L 337.387772 121.213242 
L 323.891276 121.213242 
z
" clip-path="url(#pf2dc95ed26)" style="fill: #a7b09e"/>
   </g>
   <g id="patch_24">
    <path d="M 341.419192 150.669509 
L 354.915688 150.669509 
L 354.915688 121.246868 
L 341.419192 121.246868 
z
" clip-path="url(#pf2dc95ed26)" style="fill: #626a67"/>
   </g>
   <g id="patch_25">
    <path d="M 358.947109 150.669509 
L 372.443604 150.669509 
L 372.443604 129.653337 
L 358.947109 129.653337 
z
" clip-path="url(#pf2dc95ed26)" style="fill: #4e6fa5"/>
   </g>
   <g id="patch_26">
    <path d="M 376.475025 150.669509 
L 389.971521 150.669509 
L 389.971521 128.602528 
L 376.475025 128.602528 
z
" clip-path="url(#pf2dc95ed26)" style="fill: #a9bbd6"/>
   </g>
   <g id="patch_27">
    <path d="M 394.002941 150.669509 
L 407.499437 150.669509 
L 407.499437 131.754954 
L 394.002941 131.754954 
z
" clip-path="url(#pf2dc95ed26)" style="fill: #24796c"/>
   </g>
   <g id="patch_28">
    <path d="M 411.530858 150.669509 
L 425.027353 150.669509 
L 425.027353 123.348485 
L 411.530858 123.348485 
z
" clip-path="url(#pf2dc95ed26)" style="fill: #98bfb2"/>
   </g>
   <g id="patch_29">
    <path d="M 429.058774 150.669509 
L 442.55527 150.669509 
L 442.55527 127.55172 
L 429.058774 127.55172 
z
" clip-path="url(#pf2dc95ed26)" style="fill: #b67930"/>
   </g>
   <g id="patch_30">
    <path d="M 446.58669 150.669509 
L 460.083186 150.669509 
L 460.083186 127.55172 
L 446.58669 127.55172 
z
" clip-path="url(#pf2dc95ed26)" style="fill: #cfa86d"/>
   </g>
   <g id="patch_31">
    <path d="M 464.114607 150.669509 
L 477.611102 150.669509 
L 477.611102 132.805763 
L 464.114607 132.805763 
z
" clip-path="url(#pf2dc95ed26)" style="fill: #b05443"/>
   </g>
   <g id="text_31">
    <text style="font-weight: 700; font-size: 12px; font-family: 'DejaVu Sans'; text-anchor: middle" x="383.223273" y="38.748" transform="rotate(-0 383.223273 38.748)">Reach-Wall</text>
   </g>
  </g>
  <g id="axes_3">
   <g id="patch_32">
    <path d="M 46.512 325.44 
L 244.577455 325.44 
L 244.577455 219.518491 
L 46.512 219.518491 
z
" style="fill: #ffffff"/>
   </g>
   <g id="patch_33">
    <path d="M 47.388396 325.44 
L 100.848541 325.44 
L 100.848541 219.518491 
L 47.388396 219.518491 
z
" clip-path="url(#pf6b07f38ba)" style="fill: #edf0e7; stroke: #edf0e7; stroke-linejoin: miter"/>
   </g>
   <g id="matplotlib.axis_5">
    <g id="xtick_23">
     <g id="line2d_37"/>
     <g id="text_32">
      <text style="font-size: 10.5px; font-family: 'DejaVu Sans'; text-anchor: middle" x="57.905146" y="336.918359" transform="rotate(-0 57.905146 336.918359)">D</text>
     </g>
    </g>
    <g id="xtick_24">
     <g id="line2d_38"/>
     <g id="text_33">
      <text style="font-size: 10.5px; font-family: 'DejaVu Sans'; text-anchor: middle" x="75.433062" y="336.918359" transform="rotate(-0 75.433062 336.918359)">I</text>
     </g>
    </g>
    <g id="xtick_25">
     <g id="line2d_39"/>
     <g id="text_34">
      <text style="font-size: 10.5px; font-family: 'DejaVu Sans'; text-anchor: middle" x="92.960978" y="336.918359" transform="rotate(-0 92.960978 336.918359)">F</text>
     </g>
    </g>
    <g id="xtick_26">
     <g id="line2d_40"/>
     <g id="text_35">
      <text style="font-size: 10.5px; font-family: 'DejaVu Sans'; text-anchor: middle" x="110.488895" y="336.918359" transform="rotate(-0 110.488895 336.918359)">N</text>
     </g>
    </g>
    <g id="xtick_27">
     <g id="line2d_41"/>
     <g id="text_36">
      <text style="font-size: 10.5px; font-family: 'DejaVu Sans'; text-anchor: middle" x="128.016811" y="336.918359" transform="rotate(-0 128.016811 336.918359)">R</text>
     </g>
    </g>
    <g id="xtick_28">
     <g id="line2d_42"/>
     <g id="text_37">
      <text style="font-size: 10.5px; font-family: 'DejaVu Sans'; text-anchor: middle" x="145.544727" y="336.918359" transform="rotate(-0 145.544727 336.918359)">rR</text>
     </g>
    </g>
    <g id="xtick_29">
     <g id="line2d_43"/>
     <g id="text_38">
      <text style="font-size: 10.5px; font-family: 'DejaVu Sans'; text-anchor: middle" x="163.072644" y="336.918359" transform="rotate(-0 163.072644 336.918359)">C</text>
     </g>
    </g>
    <g id="xtick_30">
     <g id="line2d_44"/>
     <g id="text_39">
      <text style="font-size: 10.5px; font-family: 'DejaVu Sans'; text-anchor: middle" x="180.60056" y="336.918359" transform="rotate(-0 180.60056 336.918359)">rC</text>
     </g>
    </g>
    <g id="xtick_31">
     <g id="line2d_45"/>
     <g id="text_40">
      <text style="font-size: 10.5px; font-family: 'DejaVu Sans'; text-anchor: middle" x="198.128476" y="336.918359" transform="rotate(-0 198.128476 336.918359)">VA</text>
     </g>
    </g>
    <g id="xtick_32">
     <g id="line2d_46"/>
     <g id="text_41">
      <text style="font-size: 10.5px; font-family: 'DejaVu Sans'; text-anchor: middle" x="215.656393" y="336.918359" transform="rotate(-0 215.656393 336.918359)">V</text>
     </g>
    </g>
    <g id="xtick_33">
     <g id="line2d_47"/>
     <g id="text_42">
      <text style="font-size: 10.5px; font-family: 'DejaVu Sans'; text-anchor: middle" x="233.184309" y="336.918359" transform="rotate(-0 233.184309 336.918359)">A</text>
     </g>
    </g>
   </g>
   <g id="matplotlib.axis_6">
    <g id="ytick_7">
     <g id="line2d_48">
      <path d="M 46.512 325.44 
L 244.577455 325.44 
" clip-path="url(#pf6b07f38ba)" style="fill: none; stroke: #b0b0b0; stroke-opacity: 0.15; stroke-width: 0.8; stroke-linecap: square"/>
     </g>
     <g id="line2d_49"/>
     <g id="text_43">
      <text style="font-size: 10.5px; font-family: 'DejaVu Sans'; text-anchor: end" x="43.012" y="329.42918" transform="rotate(-0 43.012 329.42918)">0</text>
     </g>
    </g>
    <g id="ytick_8">
     <g id="line2d_50">
      <path d="M 46.512 275.001186 
L 244.577455 275.001186 
" clip-path="url(#pf6b07f38ba)" style="fill: none; stroke: #b0b0b0; stroke-opacity: 0.15; stroke-width: 0.8; stroke-linecap: square"/>
     </g>
     <g id="line2d_51"/>
     <g id="text_44">
      <text style="font-size: 10.5px; font-family: 'DejaVu Sans'; text-anchor: end" x="43.012" y="278.990366" transform="rotate(-0 43.012 278.990366)">50</text>
     </g>
    </g>
    <g id="ytick_9">
     <g id="line2d_52">
      <path d="M 46.512 224.562372 
L 244.577455 224.562372 
" clip-path="url(#pf6b07f38ba)" style="fill: none; stroke: #b0b0b0; stroke-opacity: 0.15; stroke-width: 0.8; stroke-linecap: square"/>
     </g>
     <g id="line2d_53"/>
     <g id="text_45">
      <text style="font-size: 10.5px; font-family: 'DejaVu Sans'; text-anchor: end" x="43.012" y="228.551552" transform="rotate(-0 43.012 228.551552)">100</text>
     </g>
    </g>
    <g id="text_46">
     <text style="font-size: 10.5px; font-family: 'DejaVu Sans'; text-anchor: middle" x="16.786453" y="272.479245" transform="rotate(-90 16.786453 272.479245)">Success (%)</text>
    </g>
   </g>
   <g id="line2d_54">
    <path d="M 101.724936 325.44 
L 101.724936 219.518491 
" clip-path="url(#pf6b07f38ba)" style="fill: none; stroke-dasharray: 2.59,1.12; stroke-dashoffset: 0; stroke: #647184; stroke-width: 0.7"/>
   </g>
   <g id="patch_34">
    <path d="M 46.512 325.44 
L 46.512 219.518491 
" style="fill: none; stroke: #000000; stroke-width: 0.8; stroke-linejoin: miter; stroke-linecap: square"/>
   </g>
   <g id="patch_35">
    <path d="M 46.512 325.44 
L 244.577455 325.44 
" style="fill: none; stroke: #000000; stroke-width: 0.8; stroke-linejoin: miter; stroke-linecap: square"/>
   </g>
   <g id="patch_36">
    <path d="M 51.156898 325.44 
L 64.653393 325.44 
L 64.653393 243.123856 
L 51.156898 243.123856 
z
" clip-path="url(#pf6b07f38ba)" style="fill: #c4c7c3"/>
   </g>
   <g id="patch_37">
    <path d="M 68.684814 325.44 
L 82.18131 325.44 
L 82.18131 240.80367 
L 68.684814 240.80367 
z
" clip-path="url(#pf6b07f38ba)" style="fill: #92998f"/>
   </g>
   <g id="patch_38">
    <path d="M 86.21273 325.44 
L 99.709226 325.44 
L 99.709226 241.408936 
L 86.21273 241.408936 
z
" clip-path="url(#pf6b07f38ba)" style="fill: #a7b09e"/>
   </g>
   <g id="patch_39">
    <path d="M 103.740647 325.44 
L 117.237142 325.44 
L 117.237142 238.222884 
L 103.740647 238.222884 
z
" clip-path="url(#pf6b07f38ba)" style="fill: #626a67"/>
   </g>
   <g id="patch_40">
    <path d="M 121.268563 325.44 
L 134.765059 325.44 
L 134.765059 236.121267 
L 121.268563 236.121267 
z
" clip-path="url(#pf6b07f38ba)" style="fill: #4e6fa5"/>
   </g>
   <g id="patch_41">
    <path d="M 138.796479 325.44 
L 152.292975 325.44 
L 152.292975 238.222884 
L 138.796479 238.222884 
z
" clip-path="url(#pf6b07f38ba)" style="fill: #a9bbd6"/>
   </g>
   <g id="patch_42">
    <path d="M 156.324396 325.44 
L 169.820891 325.44 
L 169.820891 240.324501 
L 156.324396 240.324501 
z
" clip-path="url(#pf6b07f38ba)" style="fill: #24796c"/>
   </g>
   <g id="patch_43">
    <path d="M 173.852312 325.44 
L 187.348808 325.44 
L 187.348808 237.172075 
L 173.852312 237.172075 
z
" clip-path="url(#pf6b07f38ba)" style="fill: #98bfb2"/>
   </g>
   <g id="patch_44">
    <path d="M 191.380228 325.44 
L 204.876724 325.44 
L 204.876724 240.324501 
L 191.380228 240.324501 
z
" clip-path="url(#pf6b07f38ba)" style="fill: #b67930"/>
   </g>
   <g id="patch_45">
    <path d="M 208.908145 325.44 
L 222.40464 325.44 
L 222.40464 243.476927 
L 208.908145 243.476927 
z
" clip-path="url(#pf6b07f38ba)" style="fill: #cfa86d"/>
   </g>
   <g id="patch_46">
    <path d="M 226.436061 325.44 
L 239.932557 325.44 
L 239.932557 243.476927 
L 226.436061 243.476927 
z
" clip-path="url(#pf6b07f38ba)" style="fill: #b05443"/>
   </g>
   <g id="text_47">
    <text style="font-weight: 700; font-size: 12px; font-family: 'DejaVu Sans'; text-anchor: middle" x="145.544727" y="213.518491" transform="rotate(-0 145.544727 213.518491)">PointMaze</text>
   </g>
  </g>
  <g id="axes_4">
   <g id="patch_47">
    <path d="M 284.190545 325.44 
L 482.256 325.44 
L 482.256 219.518491 
L 284.190545 219.518491 
z
" style="fill: #ffffff"/>
   </g>
   <g id="patch_48">
    <path d="M 285.066941 325.44 
L 338.527086 325.44 
L 338.527086 219.518491 
L 285.066941 219.518491 
z
" clip-path="url(#pc01a419af8)" style="fill: #edf0e7; stroke: #edf0e7; stroke-linejoin: miter"/>
   </g>
   <g id="matplotlib.axis_7">
    <g id="xtick_34">
     <g id="line2d_55"/>
     <g id="text_48">
      <text style="font-size: 10.5px; font-family: 'DejaVu Sans'; text-anchor: middle" x="295.583691" y="336.918359" transform="rotate(-0 295.583691 336.918359)">D</text>
     </g>
    </g>
    <g id="xtick_35">
     <g id="line2d_56"/>
     <g id="text_49">
      <text style="font-size: 10.5px; font-family: 'DejaVu Sans'; text-anchor: middle" x="313.111607" y="336.918359" transform="rotate(-0 313.111607 336.918359)">I</text>
     </g>
    </g>
    <g id="xtick_36">
     <g id="line2d_57"/>
     <g id="text_50">
      <text style="font-size: 10.5px; font-family: 'DejaVu Sans'; text-anchor: middle" x="330.639524" y="336.918359" transform="rotate(-0 330.639524 336.918359)">F</text>
     </g>
    </g>
    <g id="xtick_37">
     <g id="line2d_58"/>
     <g id="text_51">
      <text style="font-size: 10.5px; font-family: 'DejaVu Sans'; text-anchor: middle" x="348.16744" y="336.918359" transform="rotate(-0 348.16744 336.918359)">N</text>
     </g>
    </g>
    <g id="xtick_38">
     <g id="line2d_59"/>
     <g id="text_52">
      <text style="font-size: 10.5px; font-family: 'DejaVu Sans'; text-anchor: middle" x="365.695356" y="336.918359" transform="rotate(-0 365.695356 336.918359)">R</text>
     </g>
    </g>
    <g id="xtick_39">
     <g id="line2d_60"/>
     <g id="text_53">
      <text style="font-size: 10.5px; font-family: 'DejaVu Sans'; text-anchor: middle" x="383.223273" y="336.918359" transform="rotate(-0 383.223273 336.918359)">rR</text>
     </g>
    </g>
    <g id="xtick_40">
     <g id="line2d_61"/>
     <g id="text_54">
      <text style="font-size: 10.5px; font-family: 'DejaVu Sans'; text-anchor: middle" x="400.751189" y="336.918359" transform="rotate(-0 400.751189 336.918359)">C</text>
     </g>
    </g>
    <g id="xtick_41">
     <g id="line2d_62"/>
     <g id="text_55">
      <text style="font-size: 10.5px; font-family: 'DejaVu Sans'; text-anchor: middle" x="418.279105" y="336.918359" transform="rotate(-0 418.279105 336.918359)">rC</text>
     </g>
    </g>
    <g id="xtick_42">
     <g id="line2d_63"/>
     <g id="text_56">
      <text style="font-size: 10.5px; font-family: 'DejaVu Sans'; text-anchor: middle" x="435.807022" y="336.918359" transform="rotate(-0 435.807022 336.918359)">VA</text>
     </g>
    </g>
    <g id="xtick_43">
     <g id="line2d_64"/>
     <g id="text_57">
      <text style="font-size: 10.5px; font-family: 'DejaVu Sans'; text-anchor: middle" x="453.334938" y="336.918359" transform="rotate(-0 453.334938 336.918359)">V</text>
     </g>
    </g>
    <g id="xtick_44">
     <g id="line2d_65"/>
     <g id="text_58">
      <text style="font-size: 10.5px; font-family: 'DejaVu Sans'; text-anchor: middle" x="470.862854" y="336.918359" transform="rotate(-0 470.862854 336.918359)">A</text>
     </g>
    </g>
   </g>
   <g id="matplotlib.axis_8">
    <g id="ytick_10">
     <g id="line2d_66">
      <path d="M 284.190545 325.44 
L 482.256 325.44 
" clip-path="url(#pc01a419af8)" style="fill: none; stroke: #b0b0b0; stroke-opacity: 0.15; stroke-width: 0.8; stroke-linecap: square"/>
     </g>
     <g id="line2d_67"/>
     <g id="text_59">
      <text style="font-size: 10.5px; font-family: 'DejaVu Sans'; text-anchor: end" x="280.690545" y="329.42918" transform="rotate(-0 280.690545 329.42918)">0</text>
     </g>
    </g>
    <g id="ytick_11">
     <g id="line2d_68">
      <path d="M 284.190545 275.001186 
L 482.256 275.001186 
" clip-path="url(#pc01a419af8)" style="fill: none; stroke: #b0b0b0; stroke-opacity: 0.15; stroke-width: 0.8; stroke-linecap: square"/>
     </g>
     <g id="line2d_69"/>
     <g id="text_60">
      <text style="font-size: 10.5px; font-family: 'DejaVu Sans'; text-anchor: end" x="280.690545" y="278.990366" transform="rotate(-0 280.690545 278.990366)">50</text>
     </g>
    </g>
    <g id="ytick_12">
     <g id="line2d_70">
      <path d="M 284.190545 224.562372 
L 482.256 224.562372 
" clip-path="url(#pc01a419af8)" style="fill: none; stroke: #b0b0b0; stroke-opacity: 0.15; stroke-width: 0.8; stroke-linecap: square"/>
     </g>
     <g id="line2d_71"/>
     <g id="text_61">
      <text style="font-size: 10.5px; font-family: 'DejaVu Sans'; text-anchor: end" x="280.690545" y="228.551552" transform="rotate(-0 280.690545 228.551552)">100</text>
     </g>
    </g>
   </g>
   <g id="line2d_72">
    <path d="M 339.403482 325.44 
L 339.403482 219.518491 
" clip-path="url(#pc01a419af8)" style="fill: none; stroke-dasharray: 2.59,1.12; stroke-dashoffset: 0; stroke: #647184; stroke-width: 0.7"/>
   </g>
   <g id="patch_49">
    <path d="M 284.190545 325.44 
L 284.190545 219.518491 
" style="fill: none; stroke: #000000; stroke-width: 0.8; stroke-linejoin: miter; stroke-linecap: square"/>
   </g>
   <g id="patch_50">
    <path d="M 284.190545 325.44 
L 482.256 325.44 
" style="fill: none; stroke: #000000; stroke-width: 0.8; stroke-linejoin: miter; stroke-linecap: square"/>
   </g>
   <g id="patch_51">
    <path d="M 288.835443 325.44 
L 302.331939 325.44 
L 302.331939 260.77744 
L 288.835443 260.77744 
z
" clip-path="url(#pc01a419af8)" style="fill: #c4c7c3"/>
   </g>
   <g id="patch_52">
    <path d="M 306.36336 325.44 
L 319.859855 325.44 
L 319.859855 245.948429 
L 306.36336 245.948429 
z
" clip-path="url(#pc01a419af8)" style="fill: #92998f"/>
   </g>
   <g id="patch_53">
    <path d="M 323.891276 325.44 
L 337.387772 325.44 
L 337.387772 243.829999 
L 323.891276 243.829999 
z
" clip-path="url(#pc01a419af8)" style="fill: #a7b09e"/>
   </g>
   <g id="patch_54">
    <path d="M 341.419192 325.44 
L 354.915688 325.44 
L 354.915688 243.476927 
L 341.419192 243.476927 
z
" clip-path="url(#pc01a419af8)" style="fill: #626a67"/>
   </g>
   <g id="patch_55">
    <path d="M 358.947109 325.44 
L 372.443604 325.44 
L 372.443604 244.527736 
L 358.947109 244.527736 
z
" clip-path="url(#pc01a419af8)" style="fill: #4e6fa5"/>
   </g>
   <g id="patch_56">
    <path d="M 376.475025 325.44 
L 389.971521 325.44 
L 389.971521 244.527736 
L 376.475025 244.527736 
z
" clip-path="url(#pc01a419af8)" style="fill: #a9bbd6"/>
   </g>
   <g id="patch_57">
    <path d="M 394.002941 325.44 
L 407.499437 325.44 
L 407.499437 241.37531 
L 394.002941 241.37531 
z
" clip-path="url(#pc01a419af8)" style="fill: #24796c"/>
   </g>
   <g id="patch_58">
    <path d="M 411.530858 325.44 
L 425.027353 325.44 
L 425.027353 247.680162 
L 411.530858 247.680162 
z
" clip-path="url(#pc01a419af8)" style="fill: #98bfb2"/>
   </g>
   <g id="patch_59">
    <path d="M 429.058774 325.44 
L 442.55527 325.44 
L 442.55527 247.680162 
L 429.058774 247.680162 
z
" clip-path="url(#pc01a419af8)" style="fill: #b67930"/>
   </g>
   <g id="patch_60">
    <path d="M 446.58669 325.44 
L 460.083186 325.44 
L 460.083186 244.527736 
L 446.58669 244.527736 
z
" clip-path="url(#pc01a419af8)" style="fill: #cfa86d"/>
   </g>
   <g id="patch_61">
    <path d="M 464.114607 325.44 
L 477.611102 325.44 
L 477.611102 246.629353 
L 464.114607 246.629353 
z
" clip-path="url(#pc01a419af8)" style="fill: #b05443"/>
   </g>
   <g id="text_62">
    <text style="font-weight: 700; font-size: 12px; font-family: 'DejaVu Sans'; text-anchor: middle" x="383.223273" y="213.518491" transform="rotate(-0 383.223273 213.518491)">Wall</text>
   </g>
  </g>
  <g id="text_63">
   <text style="font-weight: 700; font-size: 11px; font-family: 'DejaVu Sans'; text-anchor: middle" x="244.8" y="10.17" transform="rotate(-0 244.8 10.17)">Published references | All eight fresh protected arms</text>
  </g>
  <g id="text_64">
   <text style="font-size: 10.5px; font-family: 'DejaVu Sans'; text-anchor: middle" x="244.8" y="360.018" transform="rotate(-0 244.8 360.018)">Shaded: D = DINO-WM, I = JEPA improved, F = JEPA final.</text>
  </g>
  <g id="text_65">
   <text style="font-size: 10.5px; font-family: 'DejaVu Sans'; text-anchor: middle" x="244.8" y="378.324" transform="rotate(-0 244.8 378.324)">N = native; R/rR = learned/random rank-four; C/rC = coupling/random.</text>
  </g>
  <g id="text_66">
   <text style="font-size: 10.5px; font-family: 'DejaVu Sans'; text-anchor: middle" x="244.8" y="396.63" transform="rotate(-0 244.8 396.63)">VA/V/A = component arms. Cross-study bars are not paired effects.</text>
  </g>
 </g>
 <defs>
  <clipPath id="pdabfc33a9d">
   <rect x="46.512" y="44.748" width="198.065455" height="105.921509"/>
  </clipPath>
  <clipPath id="pf2dc95ed26">
   <rect x="284.190545" y="44.748" width="198.065455" height="105.921509"/>
  </clipPath>
  <clipPath id="pf6b07f38ba">
   <rect x="46.512" y="219.518491" width="198.065455" height="105.921509"/>
  </clipPath>
  <clipPath id="pc01a419af8">
   <rect x="284.190545" y="219.518491" width="198.065455" height="105.921509"/>
  </clipPath>
 </defs>
</svg>
