<svg xmlns="http://www.w3.org/2000/svg" width="1030" height="305" viewBox="0 0 1030 305">
<rect width="100%" height="100%" fill="white"/>
<style>text{font-family:Arial,sans-serif;fill:#17212b;font-size:12px}</style>
<text x="22" y="28" style="font-size:19px">Reach-Wall coordinate and time probes</text>
<text x="22" y="49">75 whole validation trajectories; same400 inputs,2 settings/model; R2 is readout accuracy, not steering.</text>
<text x="420" y="90">linear</text>
<text x="620" y="90">rbf</text>
<text x="20" y="131">world</text>
<rect x="410" y="110" width="170" height="30" fill="#296aa9"/><text x="420" y="131">0.9888</text>
<rect x="610" y="110" width="170" height="30" fill="#2b6baa"/><text x="620" y="131">0.9807</text>
<text x="20" y="169">goal_relative</text>
<rect x="410" y="148" width="170" height="30" fill="#487eb4"/><text x="420" y="169">0.8441</text>
<rect x="610" y="148" width="170" height="30" fill="#477eb4"/><text x="620" y="169">0.8463</text>
<text x="20" y="207">gripper_relative</text>
<rect x="410" y="186" width="170" height="30" fill="#5084b8"/><text x="420" y="207">0.8024</text>
<rect x="610" y="186" width="170" height="30" fill="#5688ba"/><text x="620" y="207">0.7756</text>
<text x="20" y="245">goal_aligned</text>
<rect x="410" y="224" width="170" height="30" fill="#719bc4"/><text x="420" y="245">0.6465</text>
<rect x="610" y="224" width="170" height="30" fill="#6d98c3"/><text x="620" y="245">0.6637</text>
<text x="20" y="283">observed_episode_raw_step</text>
<rect x="410" y="262" width="170" height="30" fill="#3370ad"/><text x="420" y="283">0.9428</text>
<rect x="610" y="262" width="170" height="30" fill="#3370ad"/><text x="620" y="283">0.9422</text>
</svg>