<svg xmlns="http://www.w3.org/2000/svg" width="1050" height="495" viewBox="0 0 1050 495">
<rect width="100%" height="100%" fill="white"/>
<style>text{font-family:Arial,sans-serif;fill:#17212b;font-size:12px}</style>
<text x="22" y="28" style="font-size:19px">predictor 5: latent trajectory through progress</text>
<text x="22" y="49">Predetermined discovery episodes 0,1,2; points connected in time order, progress may reverse.</text>
<path d="M90 85 V410 H785" fill="none" stroke="#777"/>
<text x="365" y="470">Cumulative goal-distance reduction (m)</text>
<text x="20" y="75">PC1 coordinate</text>
<text x="82.0" y="433">0</text>
<text x="25" y="414.0">-12.8</text>
<text x="218.0" y="433">0.053</text>
<text x="25" y="350.0">-7.12</text>
<text x="354.0" y="433">0.11</text>
<text x="25" y="286.0">-1.41</text>
<text x="490.00000000000006" y="433">0.16</text>
<text x="25" y="222.0">4.29</text>
<text x="626.0" y="433">0.21</text>
<text x="25" y="158.0">9.99</text>
<text x="762.0" y="433">0.27</text>
<text x="25" y="94.0">15.7</text>
<polyline points="90.00,95.56 142.74,115.57 259.22,143.27 343.82,154.24 409.27,152.19 482.73,188.66 571.90,213.11 580.38,242.73 580.27,279.73 641.27,326.61 625.64,319.26 616.86,353.06 573.28,381.39 566.96,385.81 640.91,388.08 685.26,390.05 674.15,388.39 716.23,376.90 654.79,349.47" fill="none" stroke="#286aa6" stroke-width="2"/>
<text x="800" y="90" style="fill:#286aa6">seed 1 episode 0</text>
<polyline points="90.00,90.00 168.63,107.44 278.50,129.44 404.84,142.43 511.81,162.94 577.36,167.39 659.67,192.05 708.16,224.17 721.85,240.06 711.46,266.03 696.93,274.14 736.60,287.60 743.92,291.07 743.71,304.38 730.34,314.94 748.07,327.93 734.92,334.86 748.07,345.43 770.00,354.71" fill="none" stroke="#c8543b" stroke-width="2"/>
<text x="800" y="110" style="fill:#c8543b">seed 1 episode 1</text>
<polyline points="90.00,114.42 145.77,123.44 262.02,122.03 348.23,149.45 442.62,177.70 537.32,197.07 596.45,230.21 632.89,274.81 651.34,303.78 629.99,337.86 626.49,341.82 601.99,348.35 650.25,372.45 658.87,379.49 680.20,396.71 655.85,406.22 652.02,409.65 655.98,404.03 641.91,410.00" fill="none" stroke="#478750" stroke-width="2"/>
<text x="800" y="130" style="fill:#478750">seed 1 episode 2</text>
</svg>